<svg width="22" height="24" viewBox="0 0 22 24" fill="none" xmlns="http://www.w3.org/2000/svg">
<path d="M0 0V24H22V0H0ZM16.7168 11.6571V11.6574C16.9277 11.6581 17.1675 11.6699 17.3478 11.6913C18.0822 11.7779 18.6541 12.1236 19.1406 12.7746C19.3829 13.0989 19.4657 13.2408 19.4481 13.3015C19.4367 13.3406 19.2705 13.4705 18.742 13.8532C18.2227 14.2293 18.0555 14.3419 18.0167 14.3419C17.9773 14.3419 17.8952 14.2498 17.777 14.0729C17.5492 13.7324 17.3166 13.577 16.9571 13.5252C16.5705 13.4693 16.2237 13.6022 16.0538 13.8715C15.9086 14.1016 15.8866 14.4719 16.002 14.7409C16.1358 15.0525 16.3778 15.2248 17.3052 15.6684C18.3747 16.1801 18.9168 16.5302 19.3115 16.9649C19.7366 17.4329 19.952 17.9732 20.0182 18.7376C20.0505 19.1102 20.011 19.5517 19.9133 19.9107C19.6736 20.7908 19.0268 21.4352 18.0789 21.7385C17.8168 21.8223 17.573 21.8724 17.3318 21.8916C16.9636 21.9212 16.4365 21.9049 16.1193 21.8546C15.3167 21.727 14.4108 21.2175 13.959 20.6399C13.7372 20.3563 13.4541 19.8896 13.4541 19.8075C13.4541 19.7679 13.4721 19.7454 13.5434 19.6959C13.7549 19.5494 14.9666 18.7937 14.9901 18.7937C15.0043 18.7937 15.0676 18.8751 15.1307 18.9745C15.2737 19.1997 15.6252 19.5867 15.8039 19.7158C15.9498 19.8213 16.1365 19.9059 16.3581 19.9671C16.4851 20.0016 16.5523 20.0078 16.8292 20.0078C17.1122 20.0076 17.1702 20.0025 17.2968 19.9654C17.6317 19.8671 17.893 19.6636 18.0038 19.4151C18.0523 19.3078 18.0533 19.2944 18.0533 19.0339V18.7639L17.9937 18.6351C17.8496 18.323 17.539 18.1088 16.557 17.6448C16.1059 17.4316 15.5535 17.1311 15.3378 16.9816C14.8456 16.6404 14.5044 16.2502 14.2805 15.7727C14.0578 15.2978 14.0247 15.1211 14.0241 14.407C14.0236 13.848 14.0227 13.8549 14.1288 13.4981C14.225 13.1744 14.4221 12.8127 14.6396 12.5605C15.0737 12.0571 15.7079 11.7336 16.387 11.6692C16.4738 11.6602 16.5902 11.6568 16.7167 11.6572L16.7168 11.6571ZM10.8738 11.7675H10.874C12.1818 11.7682 12.9315 11.7731 12.9435 11.7814C12.9661 11.7966 12.969 11.9208 12.969 12.7132V13.6274L11.664 13.6326L10.3591 13.6378V17.6797C10.3591 19.9028 10.3549 21.7349 10.3493 21.7511C10.3401 21.7783 10.2397 21.7804 9.39055 21.7804H8.44223L8.43242 21.7386C8.42611 21.7156 8.42147 19.8835 8.42136 17.6672L8.42104 13.6375L7.11614 13.6325L5.81113 13.6273V12.7239C5.81113 12.0075 5.81566 11.8156 5.83318 11.7965C5.85114 11.7764 6.51712 11.7712 9.38672 11.7681C9.93996 11.7675 10.4379 11.7672 10.8739 11.7675H10.8738Z" fill="#0288D1"/>
</svg>
